700 0 1 0           
30 Autodesk Translation Framework 20 ASM 231.0.0.65535 NT 24 Sat May 17 19:35:10 2025 
1 9.999999999999999547e-07 1.000000000000000036e-10 
body $1 -1 $-1 $2 $-1 $3 #
rgb_color-st-attrib $-1 -1 $4 $-1 $0 0.627450980392156854 0.627450980392156854 0.627450980392156854 #
lump $-1 -1 $-1 $-1 $5 $0 #
transform $-1 -1 1 0 0 0 1 0 0 0 1 0 0 0 1 no_rotate no_reflect no_shear #
ATTRIB_CUSTOM-attrib $-1 -1 $-1 $1 $0 @20 Timestamp_attrib_def 1 1747517735622596 #
shell $-1 -1 $-1 $-1 $-1 $6 $-1 $2 #
face $7 -1 $-1 $8 $9 $5 $-1 $10 forward single #
DXID-attrib $-1 -1 $-1 $-1 $6 @10 ASM ENTITY @1 0 #
face $11 -1 $-1 $12 $13 $5 $-1 $14 forward single #
loop $-1 -1 $-1 $15 $16 $6 #
cone-surface $-1 -1 $-1 2.142078181499584743e-13 -14 150.6000000000000227 1 0 0 0 -1.499999999999999112 4.009147065138291689e-51 1 I I 0 -1 1.499999999999999112 forward I I I I #
DXID-attrib $-1 -1 $-1 $-1 $8 @10 ASM ENTITY @1 1 #
face $17 -1 $-1 $18 $19 $5 $-1 $20 forward single #
loop $-1 -1 $-1 $21 $22 $8 #
cone-surface $-1 -1 $-1 2.136193999469071463e-13 -14.00000000000000533 65.80000000000002558 1 0 0 0 -1.499999999999996891 4.009147065138285754e-51 1 I I 0 -1 1.499999999999996891 forward I I I I #
loop $-1 -1 $-1 $-1 $23 $6 #
coedge $-1 -1 $-1 $16 $16 $24 $25 reversed $9 $-1 #
DXID-attrib $-1 -1 $-1 $-1 $12 @10 ASM ENTITY @1 2 #
face $26 -1 $-1 $27 $28 $5 $-1 $29 forward single #
loop $-1 -1 $-1 $30 $31 $12 #
cone-surface $-1 -1 $-1 2.147615418834902913e-13 150.5999999999999943 230.3999999999999773 1 0 0 0 -1.500000000000003553 4.009147065138303558e-51 1 I I 0 -1 1.500000000000003553 forward I I I I #
loop $-1 -1 $-1 $-1 $32 $8 #
coedge $-1 -1 $-1 $22 $22 $33 $34 reversed $13 $-1 #
coedge $35 -1 $-1 $23 $23 $36 $37 reversed $15 $-1 #
coedge $-1 -1 $-1 $24 $24 $16 $25 forward $38 $-1 #
edge $-1 -1 $-1 $39 -3.141592653589793116 $39 3.141592653589793116 $16 $40 forward @7 unknown #
DXID-attrib $-1 -1 $-1 $-1 $18 @10 ASM ENTITY @1 3 #
face $41 -1 $-1 $42 $43 $5 $-1 $44 forward single #
loop $-1 -1 $-1 $45 $46 $18 #
cone-surface $-1 -1 $-1 2.130656762133753546e-13 65.79999999999999716 -13.99999999999997691 1 0 0 0 -1.500000000000003553 4.009147065138303558e-51 1 I I 0 -1 1.500000000000003553 forward I I I I #
loop $-1 -1 $-1 $-1 $47 $12 #
coedge $-1 -1 $-1 $31 $31 $48 $49 reversed $19 $-1 #
coedge $50 -1 $-1 $32 $32 $51 $52 reversed $21 $-1 #
coedge $-1 -1 $-1 $33 $33 $22 $34 forward $53 $-1 #
edge $-1 -1 $-1 $54 -3.141592653589793116 $54 3.141592653589793116 $22 $55 forward @7 unknown #
ATTRIB_CUSTOM-attrib $-1 -1 $-1 $-1 $23 @17 sketch_attrib_def 1 1 3 @22 217 0 4294967295 0 1 1 #
coedge $56 -1 $-1 $36 $36 $23 $37 forward $57 $-1 #
edge $-1 -1 $-1 $58 -3.141592653589793116 $58 3.141592653589793116 $36 $59 forward @7 unknown #
loop $-1 -1 $-1 $60 $24 $61 #
vertex $-1 -1 $-1 $25 $62 #
ellipse-curve $-1 -1 $-1 3.000000000000214939 -14 150.6000000000000227 -1 3.851859888774472561e-34 6.938893903907229918e-18 -5.777789833161704993e-34 -1.499999999999999112 4.009147065138291689e-51 1 I I #
DXID-attrib $-1 -1 $-1 $-1 $27 @10 ASM ENTITY @1 4 #
face $63 -1 $-1 $64 $65 $5 $-1 $66 forward single #
loop $-1 -1 $-1 $67 $68 $27 #
cone-surface $-1 -1 $-1 2.142078181499584743e-13 230.3999999999999773 150.5999999999999943 1 0 0 0 -1.499999999999985789 4.00914706513825608e-51 1 I I 0 -1 1.499999999999985789 forward I I I I #
loop $-1 -1 $-1 $-1 $69 $18 #
coedge $-1 -1 $-1 $46 $46 $70 $71 reversed $28 $-1 #
coedge $72 -1 $-1 $47 $47 $73 $74 reversed $30 $-1 #
coedge $-1 -1 $-1 $48 $48 $31 $49 forward $75 $-1 #
edge $-1 -1 $-1 $76 -3.141592653589793116 $76 3.141592653589793116 $31 $77 forward @7 unknown #
ATTRIB_CUSTOM-attrib $-1 -1 $-1 $-1 $32 @17 sketch_attrib_def 1 1 3 @22 209 0 4294967295 0 1 1 #
coedge $78 -1 $-1 $51 $51 $32 $52 forward $79 $-1 #
edge $-1 -1 $-1 $80 -3.141592653589793116 $80 3.141592653589793116 $51 $81 forward @7 unknown #
loop $-1 -1 $-1 $38 $33 $61 #
vertex $-1 -1 $-1 $34 $82 #
ellipse-curve $-1 -1 $-1 3.000000000000214051 -14.00000000000000533 65.80000000000002558 -1 3.851859888774472561e-34 6.938893903907229918e-18 -5.77778983316169644e-34 -1.499999999999996891 4.009147065138285754e-51 1 I I #
ATTRIB_CUSTOM-attrib $-1 -1 $-1 $-1 $36 @17 sketch_attrib_def 1 1 3 @22 217 0 4294967295 0 1 1 #
loop $-1 -1 $-1 $79 $36 $83 #
vertex $-1 -1 $-1 $37 $84 #
ellipse-curve $-1 -1 $-1 2.142078181499584743e-13 -14 150.6000000000000227 1 -3.851859888774472561e-34 -6.938893903907229918e-18 -5.777789833161704993e-34 -1.499999999999999112 4.009147065138291689e-51 1 I I #
loop $-1 -1 $-1 $-1 $85 $61 #
face $86 -1 $-1 $87 $88 $5 $-1 $89 reversed single #
point $-1 -1 $-1 3.000000000000214939 -12.5 150.6000000000000227 #
DXID-attrib $-1 -1 $-1 $-1 $42 @10 ASM ENTITY @1 5 #
face $90 -1 $-1 $91 $92 $5 $-1 $93 forward single #
loop $-1 -1 $-1 $94 $95 $42 #
cone-surface $-1 -1 $-1 2.136193999469071463e-13 230.3999999999999773 65.80000000000001137 1 0 0 0 -1.499999999999985789 4.00914706513825608e-51 1 I I 0 -1 1.499999999999985789 forward I I I I #
loop $-1 -1 $-1 $-1 $96 $27 #
coedge $-1 -1 $-1 $68 $68 $97 $98 reversed $43 $-1 #
coedge $99 -1 $-1 $69 $69 $100 $101 reversed $45 $-1 #
coedge $-1 -1 $-1 $70 $70 $46 $71 forward $102 $-1 #
edge $-1 -1 $-1 $103 -3.141592653589793116 $103 3.141592653589793116 $46 $104 forward @7 unknown #
ATTRIB_CUSTOM-attrib $-1 -1 $-1 $-1 $47 @17 sketch_attrib_def 1 1 3 @22 221 0 4294967295 0 1 1 #
coedge $105 -1 $-1 $73 $73 $47 $74 forward $106 $-1 #
edge $-1 -1 $-1 $107 -3.141592653589793116 $107 3.141592653589793116 $73 $108 forward @7 unknown #
loop $-1 -1 $-1 $53 $48 $61 #
vertex $-1 -1 $-1 $49 $109 #
ellipse-curve $-1 -1 $-1 3.000000000000215383 150.5999999999999943 230.3999999999999773 -1 3.851859888774472561e-34 6.938893903907229918e-18 -5.777789833161722099e-34 -1.500000000000003553 4.009147065138303558e-51 1 I I #
ATTRIB_CUSTOM-attrib $-1 -1 $-1 $-1 $51 @17 sketch_attrib_def 1 1 3 @22 209 0 4294967295 0 1 1 #
loop $-1 -1 $-1 $106 $51 $83 #
vertex $-1 -1 $-1 $52 $110 #
ellipse-curve $-1 -1 $-1 2.136193999469071463e-13 -14.00000000000000533 65.80000000000002558 1 -3.851859888774472561e-34 -6.938893903907229918e-18 -5.77778983316169644e-34 -1.499999999999996891 4.009147065138285754e-51 1 I I #
point $-1 -1 $-1 3.000000000000214051 -12.50000000000000888 65.80000000000001137 #
face $111 -1 $-1 $112 $113 $5 $-1 $114 forward single #
point $-1 -1 $-1 2.142078181499584743e-13 -12.5 150.6000000000000227 #
coedge $-1 -1 $-1 $115 $116 $117 $118 forward $60 $-1 #
DXID-attrib $-1 -1 $-1 $-1 $61 @10 ASM ENTITY @2 12 #
face $119 -1 $-1 $120 $121 $5 $-1 $122 forward single #
loop $-1 -1 $-1 $123 $124 $61 #
plane-surface $-1 -1 $-1 3.000000000000214051 108.2000000000000028 108.2000000000000028 -1 3.851859888774472561e-34 6.938893903907229918e-18 -3.85185988877447239e-33 -10 2.672764710092196121e-50 forward_v I I I I #
DXID-attrib $-1 -1 $-1 $-1 $64 @10 ASM ENTITY @1 6 #
face $125 -1 $-1 $126 $127 $5 $-1 $128 forward single #
loop $-1 -1 $-1 $129 $130 $64 #
cone-surface $-1 -1 $-1 2.130656762133753546e-13 150.5999999999999943 -13.99999999999996092 1 0 0 0 -1.500000000000003553 4.009147065138303558e-51 1 I I 0 -1 1.500000000000003553 forward I I I I #
loop $-1 -1 $-1 $-1 $131 $42 #
coedge $-1 -1 $-1 $95 $95 $132 $133 reversed $65 $-1 #
coedge $134 -1 $-1 $96 $96 $135 $136 reversed $67 $-1 #
coedge $-1 -1 $-1 $97 $97 $68 $98 forward $137 $-1 #
edge $-1 -1 $-1 $138 -3.141592653589793116 $138 3.141592653589793116 $68 $139 forward @7 unknown #
ATTRIB_CUSTOM-attrib $-1 -1 $-1 $-1 $69 @17 sketch_attrib_def 1 1 3 @22 207 0 4294967295 0 1 1 #
coedge $140 -1 $-1 $100 $100 $69 $101 forward $141 $-1 #
edge $-1 -1 $-1 $142 -3.141592653589793116 $142 3.141592653589793116 $100 $143 forward @7 unknown #
loop $-1 -1 $-1 $75 $70 $61 #
vertex $-1 -1 $-1 $71 $144 #
ellipse-curve $-1 -1 $-1 3.000000000000213607 65.79999999999999716 -13.99999999999997691 -1 3.851859888774472561e-34 6.938893903907229918e-18 -5.777789833161722099e-34 -1.500000000000003553 4.009147065138303558e-51 1 I I #
ATTRIB_CUSTOM-attrib $-1 -1 $-1 $-1 $73 @17 sketch_attrib_def 1 1 3 @22 221 0 4294967295 0 1 1 #
loop $-1 -1 $-1 $141 $73 $83 #
vertex $-1 -1 $-1 $74 $145 #
ellipse-curve $-1 -1 $-1 2.147615418834902913e-13 150.5999999999999943 230.3999999999999773 1 -3.851859888774472561e-34 -6.938893903907229918e-18 -5.777789833161722099e-34 -1.500000000000003553 4.009147065138303558e-51 1 I I #
point $-1 -1 $-1 3.000000000000215383 152.1000000000000227 230.3999999999999773 #
point $-1 -1 $-1 2.136193999469071463e-13 -12.50000000000000888 65.80000000000002558 #
DXID-attrib $-1 -1 $-1 $-1 $83 @10 ASM ENTITY @2 29 #
face $146 -1 $-1 $-1 $147 $5 $-1 $148 forward single #
loop $-1 -1 $-1 $57 $149 $83 #
plane-surface $-1 -1 $-1 2.139136090484328229e-13 108.1999999999999176 108.2000000000000597 -1 1.483682460274968884e-67 6.938893903907228378e-18 -1.483682460274968818e-66 -10 0 forward_v I I I I #
coedge $-1 -1 $-1 $150 $85 $151 $152 forward $60 $-1 #
coedge $-1 -1 $-1 $85 $150 $153 $154 forward $60 $-1 #
coedge $-1 -1 $-1 $155 $156 $85 $118 reversed $157 $-1 #
edge $-1 -1 $-1 $158 0 $159 25.43999999999999773 $117 $160 forward @7 unknown #
DXID-attrib $-1 -1 $-1 $-1 $87 @10 ASM ENTITY @2 13 #
face $161 -1 $-1 $162 $163 $5 $-1 $164 forward single #
loop $-1 -1 $-1 $165 $166 $87 #
plane-surface $-1 -1 $-1 2.14685150483197443e-13 219.3908389794200957 219.3908389794202662 9.251858538542970657e-18 -1.372682023858141197e-84 1 -1.483682460274968818e-66 -10 0 forward_v I I I I #
loop $-1 -1 $-1 $167 $168 $61 #
coedge $-1 -1 $-1 $124 $124 $169 $170 forward $88 $-1 #
DXID-attrib $-1 -1 $-1 $-1 $91 @10 ASM ENTITY @1 7 #
face $171 -1 $-1 $172 $173 $5 $-1 $174 forward single #
loop $-1 -1 $-1 $175 $169 $91 #
cone-surface $-1 -1 $-1 2.147615418834902913e-13 65.79999999999999716 230.3999999999999773 1 0 0 0 -1.499999999999994671 4.009147065138279819e-51 1 I I 0 -1 1.499999999999994671 forward I I I I #
loop $-1 -1 $-1 $-1 $176 $64 #
coedge $-1 -1 $-1 $130 $130 $177 $178 reversed $92 $-1 #
coedge $179 -1 $-1 $131 $131 $180 $181 reversed $94 $-1 #
coedge $-1 -1 $-1 $132 $132 $95 $133 forward $182 $-1 #
edge $-1 -1 $-1 $183 -3.141592653589793116 $183 3.141592653589793116 $95 $184 forward @7 unknown #
ATTRIB_CUSTOM-attrib $-1 -1 $-1 $-1 $96 @17 sketch_attrib_def 1 1 3 @22 213 0 4294967295 0 1 1 #
coedge $185 -1 $-1 $135 $135 $96 $136 forward $186 $-1 #
edge $-1 -1 $-1 $187 -3.141592653589793116 $187 3.141592653589793116 $135 $188 forward @7 unknown #
loop $-1 -1 $-1 $102 $97 $61 #
vertex $-1 -1 $-1 $98 $189 #
ellipse-curve $-1 -1 $-1 3.000000000000214939 230.3999999999999773 150.5999999999999943 -1 3.851859888774472561e-34 6.938893903907229918e-18 -5.777789833161653676e-34 -1.499999999999985789 4.00914706513825608e-51 1 I I #
ATTRIB_CUSTOM-attrib $-1 -1 $-1 $-1 $100 @17 sketch_attrib_def 1 1 3 @22 207 0 4294967295 0 1 1 #
loop $-1 -1 $-1 $186 $100 $83 #
vertex $-1 -1 $-1 $101 $190 #
ellipse-curve $-1 -1 $-1 2.130656762133753546e-13 65.79999999999999716 -13.99999999999997691 1 -3.851859888774472561e-34 -6.938893903907229918e-18 -5.777789833161722099e-34 -1.500000000000003553 4.009147065138303558e-51 1 I I #
point $-1 -1 $-1 3.000000000000213607 67.30000000000001137 -13.99999999999998579 #
point $-1 -1 $-1 2.147615418834902913e-13 152.0999999999999943 230.3999999999999773 #
DXID-attrib $-1 -1 $-1 $-1 $112 @10 ASM ENTITY @2 30 #
loop $-1 -1 $-1 $191 $192 $112 #
plane-surface $-1 -1 $-1 15.00000000000021316 108.1999999999999176 108.2000000000000597 1 0 -9.251858538542970657e-18 -9.251858538542970348e-17 0 -10 forward_v I I I I #
coedge $193 -1 $-1 $194 $195 $196 $197 reversed $113 $-1 #
coedge $-1 -1 $-1 $116 $115 $198 $199 forward $60 $-1 #
coedge $-1 -1 $-1 $200 $201 $115 $152 reversed $202 $-1 #
edge $-1 -1 $-1 $159 0 $203 25.43999999999999773 $151 $204 forward @7 unknown #
coedge $-1 -1 $-1 $205 $206 $116 $154 reversed $173 $-1 #
edge $-1 -1 $-1 $207 0 $158 25.44000000000000128 $153 $208 forward @7 unknown #
coedge $-1 -1 $-1 $196 $117 $206 $209 reversed $157 $-1 #
coedge $-1 -1 $-1 $117 $196 $200 $210 forward $157 $-1 #
loop $-1 -1 $-1 $-1 $196 $211 #
vertex $-1 -1 $-1 $209 $212 #
vertex $-1 -1 $-1 $152 $213 #
straight-curve $-1 -1 $-1 3.000000000000215383 235.3999999999999773 235.3999999999999773 -2.323228700210514813e-32 -10 1.612063746527305506e-49 I I #
DXID-attrib $-1 -1 $-1 $-1 $120 @10 ASM ENTITY @2 14 #
face $214 -1 $-1 $215 $216 $5 $-1 $217 reversed single #
loop $-1 -1 $-1 $218 $219 $120 #
plane-surface $-1 -1 $-1 2.14685150483197443e-13 -2.990838979420262778 219.3908389794202662 -1.847567023388749927e-34 -1 -1.996968517938141907e-17 -6.938893903907228378e-17 1.996968517938141784e-16 -10 forward_v I I I I #
loop $-1 -1 $-1 $220 $221 $87 #
coedge $-1 -1 $-1 $222 $223 $224 $225 forward $121 $-1 #
loop $-1 -1 $-1 $182 $177 $61 #
coedge $-1 -1 $-1 $226 $227 $228 $229 reversed $123 $-1 #
coedge $-1 -1 $-1 $169 $169 $124 $170 reversed $127 $-1 #
edge $-1 -1 $-1 $230 -3.141592653589793116 $230 3.141592653589793116 $169 $231 forward @7 unknown #
DXID-attrib $-1 -1 $-1 $-1 $126 @10 ASM ENTITY @1 8 #
face $232 -1 $-1 $233 $234 $5 $-1 $235 forward single #
loop $-1 -1 $-1 $-1 $236 $126 #
plane-surface $-1 -1 $-1 2.130309817438558184e-13 235.3999999999999773 -18.99999999999998934 0 1 1.029511517893606241e-84 6.93889390390722961e-17 -1.029511517893606149e-83 10 forward_v I I I I #
loop $-1 -1 $-1 $-1 $237 $91 #
coedge $238 -1 $-1 $176 $176 $239 $240 reversed $129 $-1 #
coedge $-1 -1 $-1 $177 $177 $130 $178 forward $167 $-1 #
edge $-1 -1 $-1 $241 -3.141592653589793116 $241 3.141592653589793116 $130 $242 forward @7 unknown #
ATTRIB_CUSTOM-attrib $-1 -1 $-1 $-1 $131 @17 sketch_attrib_def 1 1 3 @22 219 0 4294967295 0 1 1 #
coedge $243 -1 $-1 $180 $180 $131 $181 forward $244 $-1 #
edge $-1 -1 $-1 $245 -3.141592653589793116 $245 3.141592653589793116 $180 $246 forward @7 unknown #
loop $-1 -1 $-1 $137 $132 $61 #
vertex $-1 -1 $-1 $133 $247 #
ellipse-curve $-1 -1 $-1 3.000000000000214051 230.3999999999999773 65.80000000000001137 -1 3.851859888774472561e-34 6.938893903907229918e-18 -5.777789833161653676e-34 -1.499999999999985789 4.00914706513825608e-51 1 I I #
ATTRIB_CUSTOM-attrib $-1 -1 $-1 $-1 $135 @17 sketch_attrib_def 1 1 3 @22 213 0 4294967295 0 1 1 #
loop $-1 -1 $-1 $244 $135 $83 #
vertex $-1 -1 $-1 $136 $248 #
ellipse-curve $-1 -1 $-1 2.142078181499584743e-13 230.3999999999999773 150.5999999999999943 1 -3.851859888774472561e-34 -6.938893903907229918e-18 -5.777789833161653676e-34 -1.499999999999985789 4.00914706513825608e-51 1 I I #
point $-1 -1 $-1 3.000000000000214939 231.8999999999999773 150.5999999999999943 #
point $-1 -1 $-1 2.130656762133753546e-13 67.30000000000001137 -13.99999999999997691 #
loop $-1 -1 $-1 $-1 $249 $112 #
coedge $-1 -1 $-1 $250 $251 $252 $253 forward $147 $-1 #
ATTRIB_CUSTOM-attrib $-1 -1 $-1 $-1 $149 @17 sketch_attrib_def 1 1 3 @13 196 0 1 0 1 1 #
coedge $254 -1 $-1 $255 $149 $236 $256 reversed $113 $-1 #
coedge $257 -1 $-1 $149 $255 $258 $259 reversed $113 $-1 #
coedge $260 -1 $-1 $156 $155 $149 $197 forward $157 $-1 #
edge $-1 -1 $-1 $261 0 $262 25.43999999999999773 $149 $263 forward @7 unknown #
coedge $-1 -1 $-1 $264 $265 $150 $199 reversed $234 $-1 #
edge $-1 -1 $-1 $203 0 $207 25.43999999999999773 $198 $266 forward @7 unknown #
coedge $-1 -1 $-1 $258 $151 $156 $210 reversed $202 $-1 #
coedge $-1 -1 $-1 $151 $258 $264 $267 forward $202 $-1 #
loop $-1 -1 $-1 $-1 $258 $233 #
vertex $-1 -1 $-1 $199 $268 #
straight-curve $-1 -1 $-1 3.000000000000215383 -18.99999999999998579 235.3999999999999773 -6.938893903907227145e-17 -5.236901059552625507e-16 -10 I I #
coedge $-1 -1 $-1 $236 $153 $265 $269 reversed $173 $-1 #
coedge $-1 -1 $-1 $153 $236 $155 $209 forward $173 $-1 #
vertex $-1 -1 $-1 $154 $270 #
straight-curve $-1 -1 $-1 3.000000000000213607 235.3999999999999773 -18.99999999999998934 6.93889390390722961e-17 -1.029511517893606149e-83 10 I I #
edge $-1 -1 $-1 $261 0 $158 0.3000000000000000444 $155 $271 forward @7 unknown #
edge $-1 -1 $-1 $262 0 $159 0.3000000000000000444 $156 $272 forward @7 unknown #
face $273 -1 $-1 $61 $157 $5 $-1 $274 forward single #
point $-1 -1 $-1 3.000000000000215383 235.3999999999999773 235.3999999999999773 #
point $-1 -1 $-1 3.000000000000215383 -18.99999999999999289 235.3999999999999773 #
DXID-attrib $-1 -1 $-1 $-1 $162 @10 ASM ENTITY @2 15 #
face $275 -1 $-1 $276 $277 $5 $-1 $217 reversed single #
loop $-1 -1 $-1 $278 $279 $162 #
cone-surface $-1 -1 $-1 8.000000000000254019 143.930279659806672 219.3908389794202662 0 0 -1 -1.499999999999985789 0 0 1 I I 0 1 1.499999999999985789 forward I I I I #
loop $-1 -1 $-1 $280 $281 $120 #
coedge $-1 -1 $-1 $282 $283 $226 $284 forward $163 $-1 #
loop $-1 -1 $-1 $-1 $285 $87 #
coedge $-1 -1 $-1 $221 $221 $286 $287 forward $165 $-1 #
coedge $-1 -1 $-1 $288 $166 $283 $289 forward $121 $-1 #
coedge $-1 -1 $-1 $166 $288 $290 $291 reversed $121 $-1 #
coedge $-1 -1 $-1 $227 $226 $166 $225 reversed $123 $-1 #
edge $-1 -1 $-1 $292 -5.559541948971006065 $293 16.67862584691302885 $166 $294 forward @7 unknown #
coedge $-1 -1 $-1 $224 $168 $219 $284 reversed $123 $-1 #
coedge $-1 -1 $-1 $168 $224 $295 $296 reversed $123 $-1 #
coedge $-1 -1 $-1 $297 $298 $168 $229 forward $299 $-1 #
edge $-1 -1 $-1 $300 -5.55954194897101317 $301 16.67862584691302175 $228 $302 forward @7 unknown #
vertex $-1 -1 $-1 $170 $303 #
ellipse-curve $-1 -1 $-1 3.000000000000215383 65.79999999999999716 230.3999999999999773 -1 3.851859888774472561e-34 6.938893903907229918e-18 -5.777789833161687888e-34 -1.499999999999994671 4.009147065138279819e-51 1 I I #
DXID-attrib $-1 -1 $-1 $-1 $172 @10 ASM ENTITY @1 9 #
face $304 -1 $-1 $211 $202 $5 $-1 $305 forward single #
loop $-1 -1 $-1 $-1 $306 $172 #
plane-surface $-1 -1 $-1 2.130309817438558184e-13 -19 -18.99999999999996803 0 -7.855351589328938507e-17 -1 -1.59888523684978138e-33 10 -7.855351589328938753e-16 forward_v I I I I #
coedge $307 -1 $-1 $206 $205 $194 $256 forward $173 $-1 #
coedge $308 -1 $-1 $237 $237 $309 $310 reversed $175 $-1 #
ATTRIB_CUSTOM-attrib $-1 -1 $-1 $-1 $176 @17 sketch_attrib_def 1 1 3 @22 215 0 4294967295 0 1 1 #
coedge $311 -1 $-1 $239 $239 $176 $240 forward $312 $-1 #
edge $-1 -1 $-1 $313 -3.141592653589793116 $313 3.141592653589793116 $239 $314 forward @7 unknown #
vertex $-1 -1 $-1 $178 $315 #
ellipse-curve $-1 -1 $-1 3.000000000000213607 150.5999999999999943 -13.99999999999996092 -1 3.851859888774472561e-34 6.938893903907229918e-18 -5.777789833161722099e-34 -1.500000000000003553 4.009147065138303558e-51 1 I I #
ATTRIB_CUSTOM-attrib $-1 -1 $-1 $-1 $180 @17 sketch_attrib_def 1 1 3 @22 219 0 4294967295 0 1 1 #
loop $-1 -1 $-1 $312 $180 $83 #
vertex $-1 -1 $-1 $181 $316 #
ellipse-curve $-1 -1 $-1 2.136193999469071463e-13 230.3999999999999773 65.80000000000001137 1 -3.851859888774472561e-34 -6.938893903907229918e-18 -5.777789833161653676e-34 -1.499999999999985789 4.00914706513825608e-51 1 I I #
point $-1 -1 $-1 3.000000000000214051 231.8999999999999773 65.80000000000001137 #
point $-1 -1 $-1 2.142078181499584743e-13 231.8999999999999773 150.5999999999999943 #
coedge $-1 -1 $-1 $317 $318 $319 $320 forward $191 $-1 #
coedge $-1 -1 $-1 $321 $192 $322 $323 forward $147 $-1 #
coedge $-1 -1 $-1 $192 $321 $324 $325 forward $147 $-1 #
coedge $-1 -1 $-1 $326 $327 $192 $253 reversed $328 $-1 #
edge $-1 -1 $-1 $329 0 $330 21.43816779588404842 $252 $331 forward @7 unknown #
ATTRIB_CUSTOM-attrib $-1 -1 $-1 $-1 $194 @17 sketch_attrib_def 1 1 3 @13 194 0 1 0 1 1 #
coedge $332 -1 $-1 $195 $194 $306 $333 reversed $113 $-1 #
edge $-1 -1 $-1 $334 0 $261 25.44000000000000128 $194 $335 forward @7 unknown #
ATTRIB_CUSTOM-attrib $-1 -1 $-1 $-1 $195 @17 sketch_attrib_def 1 1 3 @13 197 0 1 0 1 1 #
coedge $336 -1 $-1 $201 $200 $195 $259 forward $202 $-1 #
edge $-1 -1 $-1 $262 0 $337 25.43999999999999773 $195 $338 forward @7 unknown #
ATTRIB_CUSTOM-attrib $-1 -1 $-1 $-1 $196 @17 sketch_attrib_def 1 1 3 @13 196 0 1 0 1 1 #
vertex $-1 -1 $-1 $256 $339 #
vertex $-1 -1 $-1 $259 $340 #
straight-curve $-1 -1 $-1 2.147962363530098274e-13 235.3999999999999773 235.3999999999999773 -2.323228700210514813e-32 -10 1.612063746527305506e-49 F 0 F 25.43999999999999773 #
coedge $-1 -1 $-1 $306 $198 $201 $267 reversed $234 $-1 #
coedge $-1 -1 $-1 $198 $306 $205 $269 forward $234 $-1 #
straight-curve $-1 -1 $-1 3.000000000000213607 -19 -18.99999999999996803 -1.59888523684978138e-33 10 -7.855351589328938753e-16 I I #
edge $-1 -1 $-1 $337 0 $203 0.3000000000000000444 $201 $341 forward @7 unknown #
point $-1 -1 $-1 3.000000000000213607 -18.99999999999999289 -18.99999999999998579 #
edge $-1 -1 $-1 $334 0 $207 0.3000000000000000444 $265 $342 forward @7 unknown #
point $-1 -1 $-1 3.000000000000213607 235.3999999999999773 -18.99999999999998579 #
straight-curve $-1 -1 $-1 2.147962363530098274e-13 235.3999999999999773 235.3999999999999773 10 0 0 I I #
straight-curve $-1 -1 $-1 2.147962363530098274e-13 -18.99999999999998579 235.3999999999999773 10 0 0 I I #
DXID-attrib $-1 -1 $-1 $-1 $211 @10 ASM ENTITY @2 11 #
plane-surface $-1 -1 $-1 2.147962363530098274e-13 235.3999999999999773 235.3999999999999773 0 1.6120637465273056e-50 1 -2.323228700210514813e-32 -10 1.612063746527305506e-49 forward_v I I I I #
DXID-attrib $-1 -1 $-1 $-1 $215 @10 ASM ENTITY @2 16 #
face $343 -1 $-1 $344 $345 $5 $-1 $346 reversed single #
loop $-1 -1 $-1 $347 $348 $215 #
loop $-1 -1 $-1 $-1 $349 $162 #
coedge $-1 -1 $-1 $279 $279 $350 $351 reversed $216 $-1 #
loop $-1 -1 $-1 $-1 $352 $120 #
coedge $-1 -1 $-1 $281 $281 $353 $354 forward $218 $-1 #
coedge $-1 -1 $-1 $355 $219 $298 $356 forward $163 $-1 #
coedge $-1 -1 $-1 $219 $355 $222 $289 reversed $163 $-1 #
edge $-1 -1 $-1 $293 -5.55954194897101317 $300 16.6786258469130253 $219 $357 forward @7 unknown #
coedge $-1 -1 $-1 $285 $285 $358 $359 forward $220 $-1 #
coedge $360 -1 $-1 $286 $286 $221 $287 reversed $361 $-1 #
edge $362 -1 $-1 $363 -3.141592653589793116 $363 3.141592653589793116 $221 $364 forward @7 unknown #
coedge $-1 -1 $-1 $223 $222 $365 $366 reversed $121 $-1 #
edge $-1 -1 $-1 $293 0.3000000000000000444 $367 1.5 $222 $368 forward @7 unknown #
coedge $-1 -1 $-1 $369 $295 $223 $291 forward $370 $-1 #
edge $-1 -1 $-1 $292 0.3000000000000000444 $371 1.5 $290 $372 forward @7 unknown #
vertex $-1 -1 $-1 $225 $373 #
vertex $-1 -1 $-1 $284 $374 #
straight-curve $-1 -1 $-1 3.000000000000215383 163.7954194897100137 219.3908389794202662 -3.85185988877447239e-33 -10 3.563686280122928161e-50 I I #
coedge $-1 -1 $-1 $290 $375 $227 $296 forward $370 $-1 #
edge $-1 -1 $-1 $301 -5.559541948971006065 $292 16.6786258469130324 $295 $376 forward @7 unknown #
coedge $-1 -1 $-1 $319 $228 $375 $377 forward $299 $-1 #
coedge $-1 -1 $-1 $228 $319 $282 $356 reversed $299 $-1 #
loop $-1 -1 $-1 $378 $228 $379 #
vertex $-1 -1 $-1 $229 $380 #
vertex $-1 -1 $-1 $229 $381 #
straight-curve $-1 -1 $-1 3.000000000000213163 52.60458051028987114 -2.990838979420136212 8.874932733612637657e-33 10 7.239010877525764891e-16 I I #
point $-1 -1 $-1 3.000000000000215383 67.29999999999999716 230.3999999999999773 #
DXID-attrib $-1 -1 $-1 $-1 $233 @10 ASM ENTITY @2 10 #
plane-surface $-1 -1 $-1 2.147962363530098274e-13 -18.99999999999998579 235.3999999999999773 0 -1 5.236901059552625877e-17 -6.938893903907227145e-17 -5.236901059552625507e-16 -10 forward_v I I I I #
coedge $382 -1 $-1 $265 $264 $255 $333 forward $234 $-1 #
ATTRIB_CUSTOM-attrib $-1 -1 $-1 $-1 $236 @17 sketch_attrib_def 1 1 3 @13 194 0 1 0 1 1 #
ATTRIB_CUSTOM-attrib $-1 -1 $-1 $-1 $237 @17 sketch_attrib_def 1 1 3 @22 211 0 4294967295 0 1 1 #
coedge $383 -1 $-1 $309 $309 $237 $310 forward $384 $-1 #
edge $-1 -1 $-1 $385 -3.141592653589793116 $385 3.141592653589793116 $309 $386 forward @7 unknown #
ATTRIB_CUSTOM-attrib $-1 -1 $-1 $-1 $239 @17 sketch_attrib_def 1 1 3 @22 215 0 4294967295 0 1 1 #
loop $-1 -1 $-1 $384 $239 $83 #
vertex $-1 -1 $-1 $240 $387 #
ellipse-curve $-1 -1 $-1 2.130656762133753546e-13 150.5999999999999943 -13.99999999999996092 1 -3.851859888774472561e-34 -6.938893903907229918e-18 -5.777789833161722099e-34 -1.500000000000003553 4.009147065138303558e-51 1 I I #
point $-1 -1 $-1 3.000000000000213607 152.1000000000000227 -13.99999999999995026 #
point $-1 -1 $-1 2.136193999469071463e-13 231.8999999999999773 65.80000000000001137 #
coedge $-1 -1 $-1 $365 $249 $369 $388 forward $191 $-1 #
coedge $-1 -1 $-1 $249 $365 $355 $389 forward $191 $-1 #
coedge $-1 -1 $-1 $298 $297 $249 $320 reversed $299 $-1 #
edge $-1 -1 $-1 $390 0 $391 22.23816779588403492 $319 $392 forward @7 unknown #
coedge $-1 -1 $-1 $251 $250 $393 $394 forward $147 $-1 #
coedge $-1 -1 $-1 $395 $396 $250 $323 reversed $397 $-1 #
edge $-1 -1 $-1 $330 0 $398 21.43816779588403065 $322 $399 forward @7 unknown #
coedge $-1 -1 $-1 $400 $401 $251 $325 reversed $402 $-1 #
edge $-1 -1 $-1 $403 0 $329 21.43816779588403065 $324 $404 forward @7 unknown #
coedge $-1 -1 $-1 $405 $252 $401 $406 reversed $328 $-1 #
coedge $-1 -1 $-1 $252 $405 $395 $407 forward $328 $-1 #
loop $-1 -1 $-1 $-1 $405 $408 #
vertex $-1 -1 $-1 $406 $409 #
vertex $-1 -1 $-1 $323 $410 #
straight-curve $-1 -1 $-1 15.00000000000021494 215.3908389794200957 215.3908389794202662 -6.938893903907227145e-17 1.029511517893605967e-83 -10 I I #
ATTRIB_CUSTOM-attrib $-1 -1 $-1 $-1 $255 @17 sketch_attrib_def 1 1 3 @13 192 0 1 0 1 1 #
edge $-1 -1 $-1 $337 -0 $334 25.43999999999999773 $255 $411 forward @7 unknown #
vertex $-1 -1 $-1 $256 $412 #
straight-curve $-1 -1 $-1 2.130309817438558184e-13 235.3999999999999773 -18.99999999999998934 6.93889390390722961e-17 -1.029511517893606149e-83 10 F 0 F 25.44000000000000128 #
ATTRIB_CUSTOM-attrib $-1 -1 $-1 $-1 $258 @17 sketch_attrib_def 1 1 3 @13 197 0 1 0 1 1 #
vertex $-1 -1 $-1 $333 $413 #
straight-curve $-1 -1 $-1 2.147962363530098274e-13 -18.99999999999998579 235.3999999999999773 -6.938893903907227145e-17 -5.236901059552625507e-16 -10 F 0 F 25.43999999999999773 #
point $-1 -1 $-1 2.147962363530098274e-13 235.3999999999999773 235.3999999999999773 #
point $-1 -1 $-1 2.147962363530098274e-13 -18.99999999999998579 235.3999999999999773 #
straight-curve $-1 -1 $-1 2.130309817438558184e-13 -19 -18.99999999999996803 10 0 0 I I #
straight-curve $-1 -1 $-1 2.130309817438558184e-13 235.3999999999999773 -18.99999999999998934 10 0 0 I I #
DXID-attrib $-1 -1 $-1 $-1 $276 @10 ASM ENTITY @2 17 #
face $414 -1 $-1 $415 $416 $5 $-1 $346 reversed single #
loop $-1 -1 $-1 $417 $418 $276 #
cone-surface $-1 -1 $-1 8.000000000000254019 72.46972034019329101 219.3908389794202662 0 0 -1 -1.499999999999985789 0 0 1 I I 0 1 1.499999999999985789 forward I I I I #
loop $-1 -1 $-1 $-1 $358 $215 #
coedge $-1 -1 $-1 $348 $348 $419 $420 reversed $277 $-1 #
coedge $-1 -1 $-1 $349 $349 $421 $422 reversed $278 $-1 #
coedge $-1 -1 $-1 $350 $350 $279 $351 forward $378 $-1 #
edge $-1 -1 $-1 $423 -3.141592653589793116 $423 3.141592653589793116 $350 $424 forward @7 unknown #
coedge $-1 -1 $-1 $352 $352 $425 $426 forward $280 $-1 #
coedge $-1 -1 $-1 $353 $353 $281 $354 reversed $427 $-1 #
edge $-1 -1 $-1 $428 -3.141592653589793116 $428 3.141592653589793116 $281 $429 forward @7 unknown #
coedge $-1 -1 $-1 $283 $282 $318 $389 reversed $163 $-1 #
edge $-1 -1 $-1 $300 0.3000000000000000444 $390 1.5 $298 $430 forward @7 unknown #
straight-curve $-1 -1 $-1 3.000000000000214939 -2.990838979420260557 163.7954194897101274 -6.93889390390722961e-17 1.996968517938141784e-16 -10 I I #
coedge $431 -1 $-1 $358 $358 $285 $359 reversed $347 $-1 #
edge $432 -1 $-1 $433 -3.141592653589793116 $433 3.141592653589793116 $285 $434 forward @7 unknown #
ATTRIB_CUSTOM-attrib $-1 -1 $-1 $-1 $286 @17 sketch_attrib_def 1 1 3 @13 179 0 0 0 1 1 #
loop $-1 -1 $-1 $-1 $286 $344 #
DXID-attrib $-1 -1 $-1 $-1 $287 @10 ASM ENTITY @2 66 #
vertex $-1 -1 $-1 $287 $435 #
ellipse-curve $-1 -1 $-1 8.000000000000254019 72.46972034019329101 219.3908389794202662 -9.251858538542970657e-18 1.372682023858141197e-84 -1 -1.499999999999985789 0 0 1 I I #
coedge $-1 -1 $-1 $318 $317 $288 $366 forward $191 $-1 #
edge $-1 -1 $-1 $371 0 $367 22.23816779588403492 $288 $436 forward @7 unknown #
vertex $-1 -1 $-1 $289 $437 #
straight-curve $-1 -1 $-1 2.14685150483197443e-13 -2.990838979420262778 219.3908389794202662 10 0 -9.251858538542970348e-17 I I #
coedge $-1 -1 $-1 $375 $290 $317 $388 reversed $370 $-1 #
loop $-1 -1 $-1 $438 $295 $439 #
vertex $-1 -1 $-1 $366 $440 #
straight-curve $-1 -1 $-1 2.14685150483197443e-13 219.3908389794200957 219.3908389794202662 10 0 -9.251858538542970348e-17 I I #
point $-1 -1 $-1 3.000000000000215383 219.3908389794200957 219.3908389794202662 #
point $-1 -1 $-1 3.000000000000215383 -2.990838979420260557 219.3908389794202662 #
coedge $-1 -1 $-1 $295 $369 $297 $377 reversed $370 $-1 #
straight-curve $-1 -1 $-1 3.000000000000213607 219.3908389794200957 52.6045805102899422 6.93889390390722961e-17 -1.029511517893605967e-83 10 I I #
edge $-1 -1 $-1 $301 0.3000000000000000444 $391 1.5 $297 $441 forward @7 unknown #
loop $-1 -1 $-1 $442 $350 $379 #
face $443 -1 $-1 $83 $299 $5 $-1 $444 forward single #
point $-1 -1 $-1 3.000000000000213607 -2.990838979420260557 -2.990838979420118449 #
point $-1 -1 $-1 3.000000000000213607 219.3908389794200957 -2.990838979420118449 #
ATTRIB_CUSTOM-attrib $-1 -1 $-1 $-1 $306 @17 sketch_attrib_def 1 1 3 @13 192 0 1 0 1 1 #
ATTRIB_CUSTOM-attrib $-1 -1 $-1 $-1 $309 @17 sketch_attrib_def 1 1 3 @22 211 0 4294967295 0 1 1 #
loop $-1 -1 $-1 $445 $309 $83 #
vertex $-1 -1 $-1 $310 $446 #
ellipse-curve $-1 -1 $-1 2.147615418834902913e-13 65.79999999999999716 230.3999999999999773 1 -3.851859888774472561e-34 -6.938893903907229918e-18 -5.777789833161687888e-34 -1.499999999999994671 4.009147065138279819e-51 1 I I #
point $-1 -1 $-1 2.130656762133753546e-13 152.1000000000000227 -13.99999999999996092 #
edge $-1 -1 $-1 $391 0 $371 22.23816779588403492 $369 $447 forward @7 unknown #
edge $-1 -1 $-1 $367 0 $390 22.23816779588403847 $355 $448 forward @7 unknown #
vertex $-1 -1 $-1 $356 $449 #
vertex $-1 -1 $-1 $388 $450 #
straight-curve $-1 -1 $-1 15.00000000000021316 -2.990838979420258337 -2.990838979420133992 5.023072844838164582e-33 10 7.239010877525764891e-16 I I #
coedge $-1 -1 $-1 $451 $452 $321 $394 reversed $453 $-1 #
edge $-1 -1 $-1 $398 0 $403 21.43816779588404842 $393 $454 forward @7 unknown #
coedge $-1 -1 $-1 $455 $322 $327 $407 reversed $397 $-1 #
coedge $-1 -1 $-1 $322 $455 $451 $456 forward $397 $-1 #
loop $-1 -1 $-1 $-1 $455 $457 #
vertex $-1 -1 $-1 $394 $458 #
straight-curve $-1 -1 $-1 15.00000000000021316 215.3908389794200957 1.009161020579778301 -1.33638235504609806e-50 -10 9.273015376718553464e-68 I I #
coedge $-1 -1 $-1 $459 $324 $452 $460 reversed $402 $-1 #
coedge $-1 -1 $-1 $324 $459 $326 $406 forward $402 $-1 #
loop $-1 -1 $-1 $-1 $459 $461 #
vertex $-1 -1 $-1 $325 $462 #
straight-curve $-1 -1 $-1 15.00000000000021494 1.009161020579808277 215.3908389794202662 -1.724860784947042063e-32 10 1.1968625985757667e-49 I I #
coedge $463 -1 $-1 $327 $326 $464 $465 reversed $328 $-1 #
edge $-1 -1 $-1 $466 0 $329 1.5 $326 $467 forward @7 unknown #
edge $-1 -1 $-1 $468 0 $330 1.5 $327 $469 forward @7 unknown #
face $470 -1 $-1 $439 $471 $5 $-1 $472 forward single #
point $-1 -1 $-1 15.00000000000021494 215.3908389794200957 215.3908389794202378 #
point $-1 -1 $-1 15.00000000000021316 215.3908389794200957 1.009161020579778301 #
straight-curve $-1 -1 $-1 2.130309817438558184e-13 -19 -18.99999999999996803 -1.59888523684978138e-33 10 -7.855351589328938753e-16 F 0 F 25.43999999999999773 #
point $-1 -1 $-1 2.130309817438558184e-13 235.3999999999999773 -18.99999999999998934 #
point $-1 -1 $-1 2.130309817438558184e-13 -19 -18.99999999999996803 #
DXID-attrib $-1 -1 $-1 $-1 $344 @10 ASM ENTITY @2 18 #
face $473 -1 $-1 $474 $475 $5 $-1 $476 reversed single #
loop $-1 -1 $-1 $361 $477 $344 #
loop $-1 -1 $-1 $-1 $478 $276 #
coedge $-1 -1 $-1 $418 $418 $479 $480 reversed $345 $-1 #
coedge $-1 -1 $-1 $419 $419 $348 $420 forward $481 $-1 #
edge $-1 -1 $-1 $482 -3.141592653589793116 $482 3.141592653589793116 $419 $483 forward @7 unknown #
coedge $-1 -1 $-1 $421 $421 $349 $422 forward $484 $-1 #
edge $-1 -1 $-1 $485 -3.141592653589793116 $485 3.141592653589793116 $421 $486 forward @7 unknown #
vertex $-1 -1 $-1 $351 $487 #
ellipse-curve $-1 -1 $-1 8.000000000000254019 143.930279659806672 -2.990838979420118449 9.251858538542970657e-18 -7.239010877525764645e-17 1 -1.499999999999985789 0 0 1 I I #
coedge $-1 -1 $-1 $425 $425 $352 $426 reversed $488 $-1 #
edge $-1 -1 $-1 $489 -3.141592653589793116 $489 3.141592653589793116 $352 $490 forward @7 unknown #
loop $-1 -1 $-1 $-1 $353 $491 #
vertex $-1 -1 $-1 $354 $492 #
ellipse-curve $-1 -1 $-1 8.000000000000255795 -2.990838979420260557 72.34249435391311067 1.847567023388749927e-34 1 1.996968517938141907e-17 -1.499999999999985789 0 0 1 I I #
straight-curve $-1 -1 $-1 2.131420676136681776e-13 -2.990838979420258337 -2.990838979420133992 10 0 -9.251858538542970348e-17 I I #
ATTRIB_CUSTOM-attrib $-1 -1 $-1 $-1 $358 @17 sketch_attrib_def 1 1 3 @13 181 0 0 0 1 1 #
DXID-attrib $-1 -1 $-1 $-1 $359 @10 ASM ENTITY @2 67 #
vertex $-1 -1 $-1 $359 $493 #
ellipse-curve $-1 -1 $-1 8.000000000000254019 143.930279659806672 219.3908389794202662 -9.251858538542970657e-18 1.372682023858141197e-84 -1 -1.499999999999985789 0 0 1 I I #
point $-1 -1 $-1 9.500000000000239808 72.46972034019329101 219.3908389794202662 #
straight-curve $-1 -1 $-1 15.00000000000021494 219.3908389794200957 219.3908389794202662 -1.483682460274968818e-66 -10 0 I I #
point $-1 -1 $-1 15.00000000000021494 -2.990838979420260557 219.3908389794202378 #
loop $-1 -1 $-1 $494 $495 $439 #
face $496 -1 $-1 $379 $370 $5 $-1 $497 forward single #
point $-1 -1 $-1 15.00000000000021494 219.3908389794200957 219.3908389794202378 #
straight-curve $-1 -1 $-1 2.131420676136681776e-13 219.3908389794200957 -2.990838979420118005 10 0 -9.251858538542970348e-17 I I #
loop $-1 -1 $-1 $-1 $479 $379 #
DXID-attrib $-1 -1 $-1 $-1 $379 @10 ASM ENTITY @2 28 #
plane-surface $-1 -1 $-1 2.131420676136681776e-13 -2.990838979420258337 -2.990838979420133992 -9.251858538542970657e-18 7.239010877525764645e-17 -1 5.023072844838164582e-33 10 7.239010877525764891e-16 forward_v I I I I #
loop $-1 -1 $-1 $-1 $464 $83 #
point $-1 -1 $-1 2.147615418834902913e-13 67.29999999999999716 230.3999999999999773 #
straight-curve $-1 -1 $-1 15.00000000000021316 219.3908389794200957 -2.990838979420118005 6.938893903907228378e-17 -1.029511517893605967e-83 10 I I #
straight-curve $-1 -1 $-1 15.00000000000021494 -2.990838979420262778 219.3908389794202662 -6.938893903907228378e-17 1.996968517938141784e-16 -10 I I #
point $-1 -1 $-1 15.00000000000021316 -2.990838979420260557 -2.990838979420133992 #
point $-1 -1 $-1 15.00000000000021316 219.3908389794200957 -2.990838979420118005 #
coedge $-1 -1 $-1 $498 $393 $396 $456 reversed $453 $-1 #
coedge $-1 -1 $-1 $393 $498 $400 $460 forward $453 $-1 #
loop $-1 -1 $-1 $-1 $498 $499 #
straight-curve $-1 -1 $-1 15.00000000000021316 1.009161020579796286 1.009161020579778301 6.93889390390722961e-17 5.567125711653323069e-16 10 I I #
coedge $500 -1 $-1 $396 $395 $501 $502 reversed $397 $-1 #
edge $-1 -1 $-1 $503 0 $398 1.5 $396 $504 forward @7 unknown #
face $505 -1 $-1 $408 $484 $5 $-1 $506 forward single #
point $-1 -1 $-1 15.00000000000021316 1.009161020579796286 1.009161020579778301 #
coedge $507 -1 $-1 $401 $400 $508 $509 reversed $402 $-1 #
edge $-1 -1 $-1 $510 0 $403 1.5 $452 $511 forward @7 unknown #
face $512 -1 $-1 $499 $481 $5 $-1 $513 forward single #
point $-1 -1 $-1 15.00000000000021494 1.009161020579796286 215.3908389794202378 #
ATTRIB_CUSTOM-attrib $-1 -1 $-1 $-1 $405 @17 sketch_attrib_def 1 1 3 @22 125 0 4294967295 0 1 1 #
coedge $514 -1 $-1 $508 $501 $405 $465 forward $445 $-1 #
edge $-1 -1 $-1 $468 -21.43816779588404842 $466 0 $464 $515 forward @7 unknown #
vertex $-1 -1 $-1 $509 $516 #
straight-curve $-1 -1 $-1 2.146573949075818141e-13 215.3908389794200957 215.3908389794202662 10 0 -9.251858538542970348e-17 I I #
vertex $-1 -1 $-1 $502 $517 #
straight-curve $-1 -1 $-1 2.131698231892838065e-13 215.3908389794200957 1.009161020579778523 10 0 -9.251858538542970348e-17 I I #
DXID-attrib $-1 -1 $-1 $-1 $408 @10 ASM ENTITY @2 26 #
loop $-1 -1 $-1 $518 $519 $408 #
plane-surface $-1 -1 $-1 2.146573949075818141e-13 215.3908389794200957 215.3908389794202662 -9.524894927352292576e-102 -1 -1.029511517893606012e-84 -6.938893903907227145e-17 1.029511517893605967e-83 -10 forward_v I I I I #
DXID-attrib $-1 -1 $-1 $-1 $415 @10 ASM ENTITY @2 19 #
face $520 -1 $-1 $521 $522 $5 $-1 $476 reversed single #
loop $-1 -1 $-1 $523 $524 $415 #
cone-surface $-1 -1 $-1 8.000000000000255795 219.3908389794200957 143.6758276872464251 0 -1 0 -1.499999999999985789 0 0 1 I I 0 1 1.499999999999985789 forward I I I I #
coedge $-1 -1 $-1 $477 $477 $525 $526 reversed $416 $-1 #
coedge $-1 -1 $-1 $478 $478 $527 $528 reversed $417 $-1 #
coedge $-1 -1 $-1 $479 $479 $418 $480 forward $442 $-1 #
edge $-1 -1 $-1 $529 -3.141592653589793116 $529 3.141592653589793116 $479 $530 forward @7 unknown #
loop $-1 -1 $-1 $531 $419 $461 #
vertex $-1 -1 $-1 $420 $532 #
ellipse-curve $-1 -1 $-1 8.000000000000254019 143.930279659806672 215.3908389794202662 9.251858538542970657e-18 3.989541995252555824e-51 1 -1.499999999999985789 0 0 1 I I #
loop $-1 -1 $-1 $533 $421 $457 #
vertex $-1 -1 $-1 $422 $534 #
ellipse-curve $-1 -1 $-1 8.000000000000254019 143.930279659806672 1.009161020579796286 -9.251858538542970657e-18 3.091005125572852527e-69 -1 -1.499999999999985789 0 0 1 I I #
point $-1 -1 $-1 9.500000000000239808 143.930279659806672 -2.990838979420118449 #
loop $-1 -1 $-1 $-1 $425 $474 #
vertex $-1 -1 $-1 $426 $535 #
ellipse-curve $-1 -1 $-1 8.000000000000255795 -2.990838979420260557 143.6758276872464251 1.847567023388749927e-34 1 1.996968517938141907e-17 -1.499999999999985789 0 0 1 I I #
face $536 -1 $-1 $461 $537 $5 $-1 $538 reversed single #
point $-1 -1 $-1 9.500000000000241585 -2.990838979420260557 72.34249435391311067 #
point $-1 -1 $-1 9.500000000000239808 143.930279659806672 219.3908389794202662 #
loop $-1 -1 $-1 $-1 $539 $439 #
coedge $-1 -1 $-1 $495 $495 $524 $540 forward $438 $-1 #
DXID-attrib $-1 -1 $-1 $-1 $439 @10 ASM ENTITY @2 27 #
plane-surface $-1 -1 $-1 2.131420676136681776e-13 219.3908389794200957 -2.990838979420118005 9.524894927352292576e-102 1 1.029511517893606012e-84 6.938893903907228378e-17 -1.029511517893605967e-83 10 forward_v I I I I #
coedge $541 -1 $-1 $452 $451 $542 $543 reversed $453 $-1 #
face $544 -1 $-1 $457 $545 $5 $-1 $546 forward single #
ATTRIB_CUSTOM-attrib $-1 -1 $-1 $-1 $455 @17 sketch_attrib_def 1 1 3 @22 120 0 4294967295 0 1 1 #
coedge $547 -1 $-1 $464 $542 $455 $502 forward $445 $-1 #
edge $-1 -1 $-1 $503 -21.43816779588403065 $468 -0 $501 $548 forward @7 unknown #
vertex $-1 -1 $-1 $543 $549 #
straight-curve $-1 -1 $-1 2.131698231892838065e-13 1.009161020579796286 1.009161020579778523 10 0 -9.251858538542970348e-17 I I #
DXID-attrib $-1 -1 $-1 $-1 $457 @10 ASM ENTITY @2 25 #
plane-surface $-1 -1 $-1 2.131698231892838065e-13 215.3908389794200957 1.009161020579778523 9.251858538542970657e-18 -3.091005125572852527e-69 1 -1.33638235504609806e-50 -10 9.273015376718553464e-68 forward_v I I I I #
ATTRIB_CUSTOM-attrib $-1 -1 $-1 $-1 $459 @17 sketch_attrib_def 1 1 3 @22 124 0 4294967295 0 1 1 #
coedge $550 -1 $-1 $542 $464 $459 $509 forward $445 $-1 #
edge $-1 -1 $-1 $466 -21.43816779588403065 $510 0 $508 $551 forward @7 unknown #
vertex $-1 -1 $-1 $509 $552 #
straight-curve $-1 -1 $-1 2.146573949075818141e-13 1.009161020579808277 215.3908389794202662 10 0 -9.251858538542970348e-17 I I #
DXID-attrib $-1 -1 $-1 $-1 $461 @10 ASM ENTITY @2 23 #
plane-surface $-1 -1 $-1 2.146573949075818141e-13 1.009161020579808277 215.3908389794202662 -9.251858538542970657e-18 -3.989541995252555824e-51 -1 -1.724860784947042063e-32 10 1.1968625985757667e-49 forward_v I I I I #
ATTRIB_CUSTOM-attrib $-1 -1 $-1 $-1 $464 @17 sketch_attrib_def 1 1 3 @22 125 0 4294967295 0 1 1 #
straight-curve $-1 -1 $-1 2.146573949075818141e-13 215.3908389794200957 215.3908389794202662 6.938893903907227145e-17 -1.029511517893605967e-83 10 F -21.43816779588404842 F -0 #
point $-1 -1 $-1 2.146573949075818141e-13 215.3908389794200957 215.3908389794202662 #
point $-1 -1 $-1 2.131698231892838065e-13 215.3908389794200957 1.009161020579778523 #
loop $-1 -1 $-1 $328 $553 $408 #
coedge $-1 -1 $-1 $519 $519 $554 $555 forward $471 $-1 #
DXID-attrib $-1 -1 $-1 $-1 $474 @10 ASM ENTITY @2 20 #
face $556 -1 $-1 $491 $557 $5 $-1 $538 reversed single #
loop $-1 -1 $-1 $488 $558 $474 #
loop $-1 -1 $-1 $-1 $554 $415 #
coedge $559 -1 $-1 $524 $524 $495 $540 reversed $475 $-1 #
coedge $-1 -1 $-1 $525 $525 $477 $526 forward $531 $-1 #
edge $-1 -1 $-1 $560 -3.141592653589793116 $560 3.141592653589793116 $525 $561 forward @7 unknown #
coedge $-1 -1 $-1 $527 $527 $478 $528 forward $533 $-1 #
edge $-1 -1 $-1 $562 -3.141592653589793116 $562 3.141592653589793116 $527 $563 forward @7 unknown #
vertex $-1 -1 $-1 $480 $564 #
ellipse-curve $-1 -1 $-1 8.000000000000254019 72.46972034019329101 -2.990838979420118449 9.251858538542970657e-18 -7.239010877525764645e-17 1 -1.499999999999985789 0 0 1 I I #
loop $-1 -1 $-1 $402 $525 $461 #
point $-1 -1 $-1 9.500000000000239808 143.930279659806672 215.3908389794202662 #
loop $-1 -1 $-1 $397 $527 $457 #
point $-1 -1 $-1 9.500000000000239808 143.930279659806672 1.009161020579796286 #
point $-1 -1 $-1 9.500000000000241585 -2.990838979420260557 143.6758276872464251 #
DXID-attrib $-1 -1 $-1 $-1 $491 @10 ASM ENTITY @2 22 #
loop $-1 -1 $-1 $427 $565 $491 #
cone-surface $-1 -1 $-1 8.000000000000255795 219.3908389794200957 72.34249435391311067 0 -1 0 -1.499999999999985789 0 0 1 I I 0 1 1.499999999999985789 forward I I I I #
coedge $-1 -1 $-1 $539 $539 $566 $567 forward $494 $-1 #
edge $568 -1 $-1 $569 -3.141592653589793116 $569 3.141592653589793116 $495 $570 forward @7 unknown #
ATTRIB_CUSTOM-attrib $-1 -1 $-1 $-1 $498 @17 sketch_attrib_def 1 1 3 @22 122 0 4294967295 0 1 1 #
coedge $571 -1 $-1 $501 $508 $498 $543 forward $445 $-1 #
edge $-1 -1 $-1 $510 -21.43816779588404842 $503 0 $542 $572 forward @7 unknown #
DXID-attrib $-1 -1 $-1 $-1 $499 @10 ASM ENTITY @2 24 #
loop $-1 -1 $-1 $573 $574 $499 #
plane-surface $-1 -1 $-1 2.131698231892838065e-13 1.009161020579796286 1.009161020579778523 -5.15062595505019119e-34 1 -5.567125711653323069e-17 6.93889390390722961e-17 5.567125711653323069e-16 10 forward_v I I I I #
ATTRIB_CUSTOM-attrib $-1 -1 $-1 $-1 $501 @17 sketch_attrib_def 1 1 3 @22 120 0 4294967295 0 1 1 #
straight-curve $-1 -1 $-1 2.131698231892838065e-13 215.3908389794200957 1.009161020579778523 1.33638235504609806e-50 10 -9.273015376718553464e-68 F -21.43816779588403065 F -0 #
point $-1 -1 $-1 2.131698231892838065e-13 1.009161020579796286 1.009161020579778523 #
ATTRIB_CUSTOM-attrib $-1 -1 $-1 $-1 $508 @17 sketch_attrib_def 1 1 3 @22 124 0 4294967295 0 1 1 #
straight-curve $-1 -1 $-1 2.146573949075818141e-13 1.009161020579808277 215.3908389794202662 1.724860784947042063e-32 -10 -1.1968625985757667e-49 F -21.43816779588403065 F -0 #
point $-1 -1 $-1 2.146573949075818141e-13 1.009161020579808277 215.3908389794202662 #
coedge $-1 -1 $-1 $553 $553 $575 $576 forward $518 $-1 #
coedge $-1 -1 $-1 $554 $554 $519 $555 reversed $523 $-1 #
edge $-1 -1 $-1 $577 -3.141592653589793116 $577 3.141592653589793116 $519 $578 forward @7 unknown #
DXID-attrib $-1 -1 $-1 $-1 $521 @10 ASM ENTITY @2 21 #
loop $-1 -1 $-1 $579 $566 $521 #
coedge $-1 -1 $-1 $558 $558 $574 $580 reversed $522 $-1 #
ATTRIB_CUSTOM-attrib $-1 -1 $-1 $-1 $524 @17 sketch_attrib_def 1 1 3 @13 158 0 0 0 1 1 #
vertex $-1 -1 $-1 $526 $581 #
ellipse-curve $-1 -1 $-1 8.000000000000254019 72.46972034019329101 215.3908389794202662 9.251858538542970657e-18 3.989541995252555824e-51 1 -1.499999999999985789 0 0 1 I I #
vertex $-1 -1 $-1 $528 $582 #
ellipse-curve $-1 -1 $-1 8.000000000000254019 72.46972034019329101 1.009161020579796286 -9.251858538542970657e-18 3.091005125572852527e-69 -1 -1.499999999999985789 0 0 1 I I #
point $-1 -1 $-1 9.500000000000239808 72.46972034019329101 -2.990838979420118449 #
coedge $-1 -1 $-1 $565 $565 $583 $584 reversed $537 $-1 #
coedge $585 -1 $-1 $566 $566 $539 $567 reversed $557 $-1 #
edge $586 -1 $-1 $587 -3.141592653589793116 $587 3.141592653589793116 $539 $588 forward @7 unknown #
DXID-attrib $-1 -1 $-1 $-1 $540 @10 ASM ENTITY @2 78 #
vertex $-1 -1 $-1 $540 $589 #
ellipse-curve $-1 -1 $-1 8.000000000000255795 219.3908389794200957 143.6758276872464251 -9.524894927352292576e-102 -1 -1.029511517893606012e-84 -1.499999999999985789 0 0 1 I I #
ATTRIB_CUSTOM-attrib $-1 -1 $-1 $-1 $542 @17 sketch_attrib_def 1 1 3 @22 122 0 4294967295 0 1 1 #
straight-curve $-1 -1 $-1 2.131698231892838065e-13 1.009161020579796286 1.009161020579778523 -6.93889390390722961e-17 -5.567125711653323069e-16 -10 F -21.43816779588404842 F -0 #
loop $-1 -1 $-1 $453 $583 $499 #
coedge $-1 -1 $-1 $574 $574 $558 $580 forward $545 $-1 #
coedge $-1 -1 $-1 $575 $575 $553 $576 reversed $579 $-1 #
edge $-1 -1 $-1 $590 -3.141592653589793116 $590 3.141592653589793116 $553 $591 forward @7 unknown #
vertex $-1 -1 $-1 $555 $592 #
ellipse-curve $-1 -1 $-1 8.000000000000255795 215.3908389794200957 143.6758276872464251 9.524894927352292576e-102 1 1.029511517893606012e-84 -1.499999999999985789 0 0 1 I I #
loop $-1 -1 $-1 $-1 $575 $521 #
edge $-1 -1 $-1 $593 -3.141592653589793116 $593 3.141592653589793116 $574 $594 forward @7 unknown #
point $-1 -1 $-1 9.500000000000239808 72.46972034019329101 215.3908389794202662 #
point $-1 -1 $-1 9.500000000000239808 72.46972034019329101 1.009161020579796286 #
coedge $-1 -1 $-1 $583 $583 $565 $584 forward $573 $-1 #
edge $-1 -1 $-1 $595 -3.141592653589793116 $595 3.141592653589793116 $583 $596 forward @7 unknown #
ATTRIB_CUSTOM-attrib $-1 -1 $-1 $-1 $566 @17 sketch_attrib_def 1 1 3 @13 160 0 0 0 1 1 #
DXID-attrib $-1 -1 $-1 $-1 $567 @10 ASM ENTITY @2 81 #
vertex $-1 -1 $-1 $567 $597 #
ellipse-curve $-1 -1 $-1 8.000000000000255795 219.3908389794200957 72.34249435391311067 -9.524894927352292576e-102 -1 -1.029511517893606012e-84 -1.499999999999985789 0 0 1 I I #
point $-1 -1 $-1 9.500000000000241585 219.3908389794200957 143.6758276872464251 #
vertex $-1 -1 $-1 $576 $598 #
ellipse-curve $-1 -1 $-1 8.000000000000255795 215.3908389794200957 72.34249435391311067 9.524894927352292576e-102 1 1.029511517893606012e-84 -1.499999999999985789 0 0 1 I I #
point $-1 -1 $-1 9.500000000000241585 215.3908389794200957 143.6758276872464251 #
vertex $-1 -1 $-1 $580 $599 #
ellipse-curve $-1 -1 $-1 8.000000000000255795 1.009161020579796286 143.6758276872464251 5.15062595505019119e-34 -1 5.567125711653323069e-17 -1.499999999999985789 0 0 1 I I #
vertex $-1 -1 $-1 $584 $600 #
ellipse-curve $-1 -1 $-1 8.000000000000255795 1.009161020579796286 72.34249435391311067 5.15062595505019119e-34 -1 5.567125711653323069e-17 -1.499999999999985789 0 0 1 I I #
point $-1 -1 $-1 9.500000000000241585 219.3908389794200957 72.34249435391311067 #
point $-1 -1 $-1 9.500000000000241585 215.3908389794200957 72.34249435391311067 #
point $-1 -1 $-1 9.500000000000241585 1.009161020579796286 143.6758276872464251 #
point $-1 -1 $-1 9.500000000000241585 1.009161020579796286 72.34249435391311067 #
End-of-ACIS-data 